<?xml version="1.0" encoding="UTF-8" standalone="no"?>
<svg
   height="24px"
   viewBox="0 0 24 24"
   width="24px"
   fill="#000000"
   version="1.1"
   id="svg6"
   sodipodi:docname="Logo.svg"
   inkscape:version="1.1.1 (3bf5ae0d25, 2021-09-20)"
   xmlns:inkscape="http://www.inkscape.org/namespaces/inkscape"
   xmlns:sodipodi="http://sodipodi.sourceforge.net/DTD/sodipodi-0.dtd"
   xmlns="http://www.w3.org/2000/svg"
   xmlns:svg="http://www.w3.org/2000/svg">
  <defs
     id="defs10" />
  <sodipodi:namedview
     id="namedview8"
     pagecolor="#fffffff"
     bordercolor="#666666"
     borderopacity="1.0"
     inkscape:pageshadow="2"
     inkscape:pageopacity="0.0"
     inkscape:pagecheckerboard="0"
     showgrid="false"
     inkscape:zoom="29.958333"
     inkscape:cx="12"
     inkscape:cy="14.670376"
     inkscape:window-width="2560"
     inkscape:window-height="1377"
     inkscape:window-x="2552"
     inkscape:window-y="-8"
     inkscape:window-maximized="1"
     inkscape:current-layer="svg6" />
  <path
     d="M0 0h24v24H0z"
     fill="none"
     id="path2" />
  <path
     d="M11 6c1.38 0 2.63.56 3.54 1.46L12 10h6V4l-2.05 2.05C14.68 4.78 12.93 4 11 4c-3.53 0-6.43 2.61-6.92 6H6.1c.46-2.28 2.48-4 4.9-4zm5.64 9.14c.66-.9 1.12-1.97 1.28-3.14H15.9c-.46 2.28-2.48 4-4.9 4-1.38 0-2.63-.56-3.54-1.46L10 12H4v6l2.05-2.05C7.32 17.22 9.07 18 11 18c1.55 0 2.98-.51 4.14-1.36L20 21.49 21.49 20l-4.85-4.86z"
     id="path4" />
  <path
     style="fill:#000080;stroke-width:0.0333797"
     d="m 17.574409,19.043115 c -1.321741,-1.321835 -2.415649,-2.403338 -2.430908,-2.403338 -0.01526,0 -0.165507,0.0907 -0.333884,0.201547 -0.407648,0.268375 -1.08542,0.599103 -1.557878,0.760189 -1.473999,0.502564 -3.027927,0.502723 -4.5062592,4.61e-4 C 7.8284248,17.290407 7.0815235,16.839849 6.1988292,16.065741 L 6.0388267,15.925421 5.022195,16.941643 4.0055633,17.957865 V 14.978932 12 h 2.978973 2.9789729 l -1.2682635,1.270422 -1.2682638,1.270421 0.2002782,0.18279 c 0.4471066,0.408063 1.1785195,0.834385 1.7750647,1.034638 0.6412122,0.215248 1.5424582,0.302039 2.2349572,0.215228 1.646045,-0.206345 3.08954,-1.225007 3.834038,-2.705648 0.163727,-0.325616 0.335394,-0.78746 0.418529,-1.125987 L 15.924687,12 h 0.986547 0.986547 l -0.02348,0.175243 c -0.104275,0.778282 -0.542159,1.886865 -1.050306,2.659043 l -0.206713,0.314119 2.423031,2.423201 2.42303,2.423201 -0.726387,0.725823 c -0.399512,0.399203 -0.73381,0.725823 -0.742884,0.725823 -0.0091,0 -1.097923,-1.081502 -2.419663,-2.403338 z"
     id="path395" />
  <path
     style="fill:#474ed7;stroke-width:0.0333797;fill-opacity:1"
     d="M 4.122052,9.855856 C 4.2136568,9.2733169 4.451201,8.5366471 4.7384246,7.9443672 5.4259747,6.5265795 6.6329917,5.3380274 8.0646816,4.668995 9.4009449,4.0445558 10.986303,3.8640984 12.437664,4.1712294 c 1.218947,0.2579485 2.312389,0.8216525 3.299951,1.7012282 l 0.222207,0.1979097 1.015917,-1.015507 1.015916,-1.0155069 V 7.0182859 9.9972184 H 15.012682 12.033709 L 13.301973,8.7267545 14.570236,7.4562906 14.403338,7.3027828 C 13.742115,6.6946104 12.916432,6.2798654 11.94993,6.0704215 11.550344,5.98383 10.492694,5.9833895 10.065189,6.0696365 9.0682979,6.2707543 8.1762295,6.7390472 7.4798263,7.426827 6.8312435,8.0673784 6.3670339,8.872821 6.1426904,9.7468707 l -0.059973,0.2336578 -0.9915261,0.00885 -0.991526,0.00885 z"
     id="path434" />
  <path
     style="fill:#474ed7;fill-opacity:1;stroke-width:0.0333797"
     d="m 17.581038,19.025022 c -1.31819,-1.311885 -2.414027,-2.385245 -2.435193,-2.385245 -0.02117,0 -0.1979,0.09716 -0.392741,0.215915 -1.619771,0.98723 -3.365645,1.318269 -5.1012774,0.967264 C 8.3912275,17.56802 7.3398289,17.035096 6.2884544,16.118159 L 6.0343336,15.896533 5.0199485,16.910509 4.0055633,17.924485 V 14.962243 12 h 2.9622831 2.9622831 l -1.2682635,1.269047 -1.2682638,1.269048 0.1835883,0.166678 c 0.2826146,0.256583 0.8768849,0.643015 1.3018081,0.846519 0.6836051,0.327391 1.2921074,0.454271 2.1786214,0.454271 0.729283,0 1.316086,-0.119303 1.959587,-0.398405 1.066005,-0.462351 2.020753,-1.382161 2.503133,-2.411533 0.14025,-0.299286 0.400436,-1.036638 0.401282,-1.137211 C 15.922079,12.004116 15.991345,12 16.904716,12 h 0.982603 l -0.01767,0.125174 c -0.109647,0.776749 -0.564919,1.935704 -1.056892,2.690455 -0.104318,0.160039 -0.189669,0.309278 -0.189669,0.331643 0,0.02236 1.081457,1.122042 2.403239,2.443728 l 2.403239,2.403065 -0.708929,0.709505 c -0.38991,0.390227 -0.71657,0.708872 -0.725909,0.7081 -0.0093,-7.71e-4 -1.0955,-1.074764 -2.41369,-2.386648 z"
     id="path1325" />
  <path
     style="fill:#474ed7;fill-opacity:1;stroke-width:0.0333797"
     d="M 4.161298,9.7427957 C 4.4080761,8.4234956 5.0685993,7.1475948 6.0054042,6.1806242 6.9436996,5.2121152 8.0825758,4.5521696 9.3463143,4.2446642 10.365418,3.9966859 11.583382,3.9885416 12.580241,4.2230396 c 1.149541,0.2704149 2.40556,0.9487704 3.23399,1.7466267 l 0.142464,0.1372066 1.01748,-1.0170699 1.01748,-1.0170699 v 2.9622426 2.9622427 h -2.962283 -2.962283 l 1.259918,-1.260246 c 0.692956,-0.6931354 1.259919,-1.2706859 1.259919,-1.2834456 0,-0.042057 -0.545651,-0.4821979 -0.817802,-0.6596686 C 13.283437,6.4771408 12.593704,6.1938955 11.96662,6.0536433 11.649535,5.9827247 10.34005,5.9919852 9.9896191,6.0676243 9.4594905,6.1820506 8.7240447,6.4798751 8.2981305,6.7526056 7.254192,7.4210827 6.4684326,8.4903999 6.1396852,9.6899713 L 6.0646307,9.9638387 5.26041,9.9641391 c -0.4423215,1.669e-4 -0.8816386,0.00959 -0.9762603,0.02096 l -0.1720395,0.02067 0.049188,-0.2629629 z"
     id="path1364" />
  <path
     style="fill:#474ed7;fill-opacity:1;stroke-width:0.0333797"
     d="m 19.776424,21.176339 c -0.977313,-0.99753 -4.59803,-4.536562 -4.641272,-4.536562 -0.03052,0 -0.140067,0.05093 -0.243442,0.113186 -1.439851,0.867076 -2.755331,1.239267 -4.160138,1.177034 -1.6637094,-0.0737 -3.066228,-0.65367 -4.4369443,-1.834764 L 6.0301455,15.86734 5.0178544,16.879223 4.0055633,17.891105 V 14.945553 12 h 2.9455933 2.9455932 l -1.2682635,1.270483 -1.2682638,1.270484 0.116829,0.101893 c 0.8425659,0.734848 1.8422617,1.212091 2.7884895,1.331194 0.463546,0.05835 1.516128,0.02297 1.884668,-0.06334 1.229513,-0.287943 2.330788,-1.053707 3.048217,-2.11956 0.230115,-0.341871 0.431696,-0.772111 0.604623,-1.290464 l 0.150333,-0.450625 0.309818,-0.0213 c 0.1704,-0.01171 0.600905,-0.02298 0.956677,-0.02504 L 17.866737,12 17.8453,12.161602 c -0.09049,0.682127 -0.541399,1.824672 -1.036209,2.625602 -0.102078,0.16523 -0.185688,0.325163 -0.1858,0.355408 -10e-5,0.03024 1.072781,1.135419 2.384205,2.455943 l 2.384409,2.400953 -0.690681,0.690093 c -0.379874,0.379551 -0.698529,0.690093 -0.708123,0.690093 -0.0096,0 -0.107099,-0.09151 -0.216677,-0.203355 z"
     id="path1403" />
  <path
     style="fill:#474ed7;fill-opacity:1;stroke-width:0.0333797"
     d="m 13.512949,10.00557 c 0.832122,-0.005 2.183999,-0.005 3.004172,4e-6 0.820173,0.005 0.139346,0.009 -1.512949,0.009 -1.652294,-2e-6 -2.323345,-0.0041 -1.491223,-0.009 z"
     id="path1442" />
  <path
     style="fill:#1b1e54;fill-opacity:1;stroke-width:0.0333797"
     d="m 18.826147,20.234232 c -2.058372,-2.046945 -3.646303,-3.594455 -3.688343,-3.594455 -0.02262,0 -0.257037,0.122613 -0.520924,0.272473 -1.186445,0.673772 -2.175027,0.971224 -3.384613,1.018388 C 9.4938716,17.99842 7.8749578,17.415099 6.4089013,16.192699 L 6.0250348,15.872631 5.015299,16.881868 4.0055633,17.891105 V 14.945553 12 h 2.9455933 2.9455932 l -1.2682635,1.269809 -1.2682638,1.26981 0.116829,0.100882 c 0.5731797,0.494941 1.257882,0.901885 1.8859527,1.120891 0.4945732,0.172457 0.7639588,0.215226 1.4687068,0.233181 1.048227,0.0267 1.586039,-0.08294 2.403338,-0.489971 0.570359,-0.284051 0.926524,-0.547043 1.388679,-1.025404 0.582325,-0.602742 0.881356,-1.106297 1.181386,-1.989401 l 0.149394,-0.439727 0.309255,-0.0213 c 0.17009,-0.01171 0.598407,-0.02298 0.951814,-0.02504 0.7392,-0.0043 0.677866,-0.04242 0.591585,0.367744 -0.156959,0.746154 -0.503946,1.592215 -0.974892,2.377085 -0.196174,0.326941 -0.213153,0.369406 -0.175694,0.4394 0.02281,0.04261 1.097315,1.141504 2.387794,2.441977 l 2.346326,2.364495 -0.689487,0.692628 c -0.379217,0.380946 -0.697131,0.692571 -0.706474,0.692501 -0.0093,-7.1e-5 -0.535208,-0.515471 -1.168588,-1.145334 z"
     id="path1481" />
  <path
     style="fill:#1b1e54;fill-opacity:1;stroke-width:0.0333797"
     d="M 4.1604081,9.7427957 C 4.3609688,8.6508234 4.8915947,7.5097148 5.6175681,6.6091794 5.8847436,6.2777609 6.4460735,5.7341529 6.7959084,5.4680408 7.7732418,4.7246035 8.8504239,4.2775866 10.07347,4.1078941 c 0.479351,-0.066508 1.410915,-0.067392 1.872556,-0.00178 1.392377,0.1979035 2.67249,0.7991668 3.75363,1.7630635 L 15.961205,6.102365 16.97643,5.087549 17.991655,4.0727331 V 7.0349757 9.9972184 H 15.029372 12.067089 L 13.335352,8.7269521 14.603616,7.4566858 14.407641,7.2832804 C 13.752368,6.703472 12.919283,6.2780671 12.03338,6.0708908 11.6561,5.9826607 10.395189,5.9808319 9.9896191,6.0679265 9.0498189,6.2697449 8.1574545,6.748753 7.4898736,7.409753 6.8157709,8.0772103 6.3991865,8.7822809 6.1435231,9.6884562 l -0.077695,0.2753825 -0.8048195,3.004e-4 c -0.4426508,1.669e-4 -0.8822373,0.00959 -0.976859,0.02096 l -0.1720395,0.02067 0.048298,-0.2629629 z"
     id="path1631" />
</svg>
